<mxfile host="app.diagrams.net" modified="2023-03-01T12:23:21.229Z" agent="5.0 (Macintosh; Intel Mac OS X 10_15_7) AppleWebKit/537.36 (KHTML, like Gecko) Chrome/110.0.0.0 Safari/537.36" version="20.8.5" etag="9OIfewQ9XeTs7YKNMlqM" type="github">
  <diagram id="x7A4RskDXGoeeCjEzgLu" name="Page-1">
    <mxGraphModel dx="2044" dy="1804" grid="1" gridSize="10" guides="1" tooltips="1" connect="1" arrows="1" fold="1" page="1" pageScale="1" pageWidth="850" pageHeight="1100" math="0" shadow="0">
      <root>
        <mxCell id="0" />
        <mxCell id="1" parent="0" />
        <mxCell id="m3rqklWHW5S10Pi8kcPl-9" value="" style="rounded=0;whiteSpace=wrap;html=1;" vertex="1" parent="1">
          <mxGeometry x="350" y="340" width="560" height="250" as="geometry" />
        </mxCell>
        <mxCell id="m3rqklWHW5S10Pi8kcPl-7" value="" style="rounded=0;whiteSpace=wrap;html=1;" vertex="1" parent="1">
          <mxGeometry x="360" y="140" width="550" height="140" as="geometry" />
        </mxCell>
        <mxCell id="m3rqklWHW5S10Pi8kcPl-1" value="apps" style="rounded=0;whiteSpace=wrap;html=1;" vertex="1" parent="1">
          <mxGeometry x="360" y="-60" width="550" height="140" as="geometry" />
        </mxCell>
        <mxCell id="m3rqklWHW5S10Pi8kcPl-10" style="edgeStyle=orthogonalEdgeStyle;rounded=0;orthogonalLoop=1;jettySize=auto;html=1;entryX=0.558;entryY=1.017;entryDx=0;entryDy=0;entryPerimeter=0;" edge="1" parent="1" source="m3rqklWHW5S10Pi8kcPl-2" target="m3rqklWHW5S10Pi8kcPl-8">
          <mxGeometry relative="1" as="geometry" />
        </mxCell>
        <mxCell id="m3rqklWHW5S10Pi8kcPl-2" value="content-api" style="rounded=1;whiteSpace=wrap;html=1;" vertex="1" parent="1">
          <mxGeometry x="425" y="420" width="120" height="60" as="geometry" />
        </mxCell>
        <mxCell id="m3rqklWHW5S10Pi8kcPl-4" value="x-files&lt;br&gt;" style="text;html=1;align=center;verticalAlign=middle;resizable=0;points=[];autosize=1;strokeColor=none;fillColor=none;" vertex="1" parent="1">
          <mxGeometry x="410" y="320" width="50" height="30" as="geometry" />
        </mxCell>
        <mxCell id="m3rqklWHW5S10Pi8kcPl-8" value="middlend" style="rounded=1;whiteSpace=wrap;html=1;" vertex="1" parent="1">
          <mxGeometry x="470" y="185" width="120" height="60" as="geometry" />
        </mxCell>
        <mxCell id="m3rqklWHW5S10Pi8kcPl-11" value="Response content-api" style="text;html=1;align=center;verticalAlign=middle;resizable=0;points=[];autosize=1;strokeColor=none;fillColor=none;" vertex="1" parent="1">
          <mxGeometry x="510" y="300" width="140" height="30" as="geometry" />
        </mxCell>
        <mxCell id="m3rqklWHW5S10Pi8kcPl-13" value="&lt;div&gt;{&lt;/div&gt;&lt;div&gt;&amp;nbsp; &amp;nbsp;&quot;id&quot;: &quot;30513148a67442eab0f8758245699ef5&quot;,&lt;/div&gt;&lt;div&gt;&amp;nbsp; &amp;nbsp;&quot;name&quot;: &quot;El patriota&quot;,&lt;/div&gt;&lt;div&gt;&amp;nbsp; &amp;nbsp;&quot;description&quot;: &quot;En 1776, Carolina del Sur, Benjamin Martin (Mel Gibson), viudo y héroe de guerra, se encuentra en medio de la Revolución Estadounidense mientras observa impotentemente cómo las salvajes fuerzas de los casacas rojas británicos separan a su familia. Incapaz de permanecer en silencio, recluta un grupo de reticentes voluntarios, incluyendo su idealista hijo patriota, Gabriel (Heath Ledger), para levantarse en armas contra los británicos. Luchando por la libertad de su familia y la independencia de su país, Martin descubre el dolor de la traición, la redención de la venganza y la pasión del amor.&quot;,&lt;/div&gt;&lt;div&gt;&amp;nbsp; &amp;nbsp;&quot;year&quot;: &quot;2000&quot;,&lt;/div&gt;&lt;div&gt;&amp;nbsp; &amp;nbsp;&quot;country&quot;: &quot;DE&quot;,&lt;/div&gt;&lt;div&gt;&amp;nbsp; &amp;nbsp;&quot;site_id&quot;: &quot;MLA&quot;,&lt;/div&gt;&lt;div&gt;&amp;nbsp; &amp;nbsp;&quot;published&quot;: &quot;true&quot;,&lt;/div&gt;&lt;div&gt;&amp;nbsp; &amp;nbsp;&quot;images&quot;: [&lt;/div&gt;&lt;div&gt;&amp;nbsp; &amp;nbsp; &amp;nbsp; &amp;nbsp;{&lt;/div&gt;&lt;div&gt;&amp;nbsp; &amp;nbsp; &amp;nbsp; &amp;nbsp; &amp;nbsp; &amp;nbsp;&quot;url&quot;: &quot;http://http2.mlstatic.com/D_NQ_NP_971413-MLU53010867218_122022-C.jpg&quot;,&lt;/div&gt;&lt;div&gt;&amp;nbsp; &amp;nbsp; &amp;nbsp; &amp;nbsp; &amp;nbsp; &amp;nbsp;&quot;type&quot;: &quot;backdrop&quot;&lt;/div&gt;&lt;div&gt;&amp;nbsp; &amp;nbsp; &amp;nbsp; &amp;nbsp;}&lt;/div&gt;&lt;div&gt;&amp;nbsp; &amp;nbsp;],&lt;/div&gt;&lt;div&gt;&amp;nbsp; &amp;nbsp;&quot;genres&quot;: [&lt;/div&gt;&lt;div&gt;&amp;nbsp; &amp;nbsp; &amp;nbsp; &amp;nbsp;&quot;Drama&quot;,&lt;/div&gt;&lt;div&gt;&amp;nbsp; &amp;nbsp; &amp;nbsp; &amp;nbsp;&quot;Historia&quot;,&lt;/div&gt;&lt;div&gt;&amp;nbsp; &amp;nbsp; &amp;nbsp; &amp;nbsp;&quot;Bélica&quot;,&lt;/div&gt;&lt;div&gt;&amp;nbsp; &amp;nbsp; &amp;nbsp; &amp;nbsp;&quot;Acción&quot;&lt;/div&gt;&lt;div&gt;&amp;nbsp; &amp;nbsp;],&lt;/div&gt;&lt;div&gt;&amp;nbsp; &amp;nbsp;&quot;internal_tags&quot;: [&lt;/div&gt;&lt;div&gt;&amp;nbsp; &amp;nbsp; &amp;nbsp; &amp;nbsp;&quot;mplay&quot;,&lt;/div&gt;&lt;div&gt;&amp;nbsp; &amp;nbsp; &amp;nbsp; &amp;nbsp;&quot;MANUALLY_UPDATED&quot;&lt;/div&gt;&lt;div&gt;&amp;nbsp; &amp;nbsp;],&lt;/div&gt;&lt;div&gt;&amp;nbsp; &amp;nbsp;&quot;rating_age&quot;: &quot;R&quot;,&lt;/div&gt;&lt;div&gt;&amp;nbsp; &amp;nbsp;&quot;duration&quot;: &quot;9900&quot;,&lt;/div&gt;&lt;div&gt;&amp;nbsp; &amp;nbsp;&quot;type&quot;: &quot;MOVIE&quot;,&lt;/div&gt;&lt;div&gt;&amp;nbsp; &amp;nbsp;&quot;crews&quot;: [&lt;/div&gt;&lt;div&gt;&amp;nbsp; &amp;nbsp; &amp;nbsp; &amp;nbsp;{&lt;/div&gt;&lt;div&gt;&amp;nbsp; &amp;nbsp; &amp;nbsp; &amp;nbsp; &amp;nbsp; &amp;nbsp;&quot;person_name&quot;: &quot;John Williams&quot;,&lt;/div&gt;&lt;div&gt;&amp;nbsp; &amp;nbsp; &amp;nbsp; &amp;nbsp; &amp;nbsp; &amp;nbsp;&quot;credit&quot;: &quot;Original Music Composer&quot;&lt;/div&gt;&lt;div&gt;&amp;nbsp; &amp;nbsp; &amp;nbsp; &amp;nbsp;}&lt;/div&gt;&lt;div&gt;&amp;nbsp; &amp;nbsp;],&lt;/div&gt;&lt;div&gt;&amp;nbsp; &amp;nbsp;&quot;casts&quot;: [&lt;/div&gt;&lt;div&gt;&amp;nbsp; &amp;nbsp; &amp;nbsp; &amp;nbsp;{&lt;/div&gt;&lt;div&gt;&amp;nbsp; &amp;nbsp; &amp;nbsp; &amp;nbsp; &amp;nbsp; &amp;nbsp;&quot;person_name&quot;: &quot;Mel Gibson&quot;,&lt;/div&gt;&lt;div&gt;&amp;nbsp; &amp;nbsp; &amp;nbsp; &amp;nbsp; &amp;nbsp; &amp;nbsp;&quot;role&quot;: &quot;Benjamin Martin&quot;&lt;/div&gt;&lt;div&gt;&amp;nbsp; &amp;nbsp; &amp;nbsp; &amp;nbsp;}&lt;/div&gt;&lt;div&gt;&amp;nbsp; &amp;nbsp;],&lt;/div&gt;&lt;div&gt;&amp;nbsp; &amp;nbsp;&quot;preview_url&quot;: &quot;https://mdstrm.com/video/6372c19edb454108521fd018/preview.mp4&quot;,&lt;/div&gt;&lt;div&gt;&amp;nbsp; &amp;nbsp;&quot;preview&quot;: {&lt;/div&gt;&lt;div&gt;&amp;nbsp; &amp;nbsp; &amp;nbsp; &amp;nbsp;&quot;mp4&quot;: &quot;https://mdstrm.com/video/6372c19edb454108521fd018/preview.mp4&quot;,&lt;/div&gt;&lt;div&gt;&amp;nbsp; &amp;nbsp; &amp;nbsp; &amp;nbsp;&quot;webm&quot;: &quot;https://mdstrm.com/video/6372c19edb454108521fd018/preview.webm&quot;&lt;/div&gt;&lt;div&gt;&amp;nbsp; &amp;nbsp;},&lt;/div&gt;&lt;div&gt;&amp;nbsp; &amp;nbsp; //OPCION&amp;nbsp;&lt;/div&gt;&lt;div&gt;&amp;nbsp; &amp;nbsp; &quot;trailer&quot; : {&lt;/div&gt;&lt;div&gt;&amp;nbsp; &amp;nbsp; &amp;nbsp; &quot;mplay&quot; :&amp;nbsp; { //playback-context&quot;type&quot;&lt;/div&gt;&lt;div&gt;&amp;nbsp; &amp;nbsp; &amp;nbsp; &amp;nbsp; &quot;hls&quot;: &quot;https://mdstrm.com/video/6372c19edb454108521fd018.m3u8&quot;,&lt;/div&gt;&lt;div&gt;&amp;nbsp; &amp;nbsp; &amp;nbsp; &amp;nbsp;&quot;dash&quot;: &quot;https://mdstrm.com/video/6372c19edb454108521fd018.mpd&quot;&lt;/div&gt;&lt;div&gt;&amp;nbsp; &amp;nbsp; &amp;nbsp; }&lt;/div&gt;&lt;div&gt;&amp;nbsp; &amp;nbsp; },&lt;/div&gt;&lt;div&gt;&amp;nbsp; &amp;nbsp;&quot;content_provider&quot;: &quot;MELICP&quot;,&lt;/div&gt;&lt;div&gt;&amp;nbsp; &amp;nbsp;&quot;content_descriptors&quot;: [],&lt;/div&gt;&lt;div&gt;&amp;nbsp; &amp;nbsp;&quot;directors&quot;: [&lt;/div&gt;&lt;div&gt;&amp;nbsp; &amp;nbsp; &amp;nbsp; &amp;nbsp;&quot;Roland Emmerich&quot;&lt;/div&gt;&lt;div&gt;&amp;nbsp; &amp;nbsp;],&lt;/div&gt;&lt;div&gt;&amp;nbsp; &amp;nbsp;&quot;product_id&quot;: &quot;MLA19811003&quot;&lt;/div&gt;&lt;div&gt;}&lt;/div&gt;" style="rounded=0;whiteSpace=wrap;html=1;align=left;verticalAlign=top;" vertex="1" parent="1">
          <mxGeometry x="-730" y="-40" width="640" height="1080" as="geometry" />
        </mxCell>
        <mxCell id="m3rqklWHW5S10Pi8kcPl-15" style="edgeStyle=orthogonalEdgeStyle;rounded=0;orthogonalLoop=1;jettySize=auto;html=1;" edge="1" parent="1" source="m3rqklWHW5S10Pi8kcPl-14" target="m3rqklWHW5S10Pi8kcPl-2">
          <mxGeometry relative="1" as="geometry" />
        </mxCell>
        <mxCell id="m3rqklWHW5S10Pi8kcPl-14" value="playback-context" style="rounded=1;whiteSpace=wrap;html=1;" vertex="1" parent="1">
          <mxGeometry x="670" y="420" width="120" height="60" as="geometry" />
        </mxCell>
        <mxCell id="m3rqklWHW5S10Pi8kcPl-17" value="content-api decora respuesta con info de trailers desde playback-context" style="text;html=1;strokeColor=none;fillColor=none;align=center;verticalAlign=middle;whiteSpace=wrap;rounded=0;" vertex="1" parent="1">
          <mxGeometry x="385" y="490" width="180" height="60" as="geometry" />
        </mxCell>
      </root>
    </mxGraphModel>
  </diagram>
</mxfile>
